<mxfile host="Electron" modified="2023-11-30T02:12:54.472Z" agent="Mozilla/5.0 (Windows NT 10.0; Win64; x64) AppleWebKit/537.36 (KHTML, like Gecko) draw.io/22.1.2 Chrome/114.0.5735.289 Electron/25.9.4 Safari/537.36" etag="vURmh6qzpznGHmkXlYQ9" version="22.1.2" type="device">
  <diagram id="C5RBs43oDa-KdzZeNtuy" name="Page-1">
    <mxGraphModel dx="468" dy="1022" grid="1" gridSize="10" guides="1" tooltips="1" connect="1" arrows="1" fold="1" page="1" pageScale="1" pageWidth="827" pageHeight="1169" math="0" shadow="0">
      <root>
        <mxCell id="WIyWlLk6GJQsqaUBKTNV-0" />
        <mxCell id="WIyWlLk6GJQsqaUBKTNV-1" parent="WIyWlLk6GJQsqaUBKTNV-0" />
        <mxCell id="CcBjBYZrfYTEaPY6omlU-2" value="" style="edgeStyle=orthogonalEdgeStyle;rounded=0;orthogonalLoop=1;jettySize=auto;html=1;" parent="WIyWlLk6GJQsqaUBKTNV-1" source="CcBjBYZrfYTEaPY6omlU-0" target="CcBjBYZrfYTEaPY6omlU-1" edge="1">
          <mxGeometry relative="1" as="geometry" />
        </mxCell>
        <mxCell id="CcBjBYZrfYTEaPY6omlU-0" value="Start" style="ellipse;whiteSpace=wrap;html=1;" parent="WIyWlLk6GJQsqaUBKTNV-1" vertex="1">
          <mxGeometry x="50" y="310" width="160" height="70" as="geometry" />
        </mxCell>
        <mxCell id="CcBjBYZrfYTEaPY6omlU-6" value="" style="edgeStyle=orthogonalEdgeStyle;rounded=0;orthogonalLoop=1;jettySize=auto;html=1;" parent="WIyWlLk6GJQsqaUBKTNV-1" source="CcBjBYZrfYTEaPY6omlU-1" target="CcBjBYZrfYTEaPY6omlU-5" edge="1">
          <mxGeometry relative="1" as="geometry" />
        </mxCell>
        <mxCell id="CcBjBYZrfYTEaPY6omlU-1" value="static int [ ] [ ] nilaiTugas =&lt;br&gt;&amp;nbsp;new int [5][7]&lt;br&gt;String[ ] namaMahasiswa = &lt;br&gt;new String[5]&amp;nbsp;" style="shape=hexagon;perimeter=hexagonPerimeter2;whiteSpace=wrap;html=1;fixedSize=1;" parent="WIyWlLk6GJQsqaUBKTNV-1" vertex="1">
          <mxGeometry x="35" y="420" width="190" height="75" as="geometry" />
        </mxCell>
        <mxCell id="CcBjBYZrfYTEaPY6omlU-8" value="" style="edgeStyle=orthogonalEdgeStyle;rounded=0;orthogonalLoop=1;jettySize=auto;html=1;" parent="WIyWlLk6GJQsqaUBKTNV-1" source="CcBjBYZrfYTEaPY6omlU-5" target="CcBjBYZrfYTEaPY6omlU-7" edge="1">
          <mxGeometry relative="1" as="geometry" />
        </mxCell>
        <mxCell id="CcBjBYZrfYTEaPY6omlU-5" value="inputDataNilaiMahasiswa&lt;br&gt;(namaMahasiswa, nilaiTugas)" style="shape=process;whiteSpace=wrap;html=1;backgroundOutline=1;" parent="WIyWlLk6GJQsqaUBKTNV-1" vertex="1">
          <mxGeometry x="40" y="540" width="180" height="70" as="geometry" />
        </mxCell>
        <mxCell id="CcBjBYZrfYTEaPY6omlU-10" value="" style="edgeStyle=orthogonalEdgeStyle;rounded=0;orthogonalLoop=1;jettySize=auto;html=1;" parent="WIyWlLk6GJQsqaUBKTNV-1" source="CcBjBYZrfYTEaPY6omlU-7" target="CcBjBYZrfYTEaPY6omlU-9" edge="1">
          <mxGeometry relative="1" as="geometry" />
        </mxCell>
        <mxCell id="CcBjBYZrfYTEaPY6omlU-7" value="tampilkanNilaiMahasiswa&lt;br&gt;(namaMahasiswa,nilaiTugas)" style="shape=process;whiteSpace=wrap;html=1;backgroundOutline=1;" parent="WIyWlLk6GJQsqaUBKTNV-1" vertex="1">
          <mxGeometry x="40" y="650" width="180" height="70" as="geometry" />
        </mxCell>
        <mxCell id="CcBjBYZrfYTEaPY6omlU-12" value="" style="edgeStyle=orthogonalEdgeStyle;rounded=0;orthogonalLoop=1;jettySize=auto;html=1;" parent="WIyWlLk6GJQsqaUBKTNV-1" source="CcBjBYZrfYTEaPY6omlU-9" target="CcBjBYZrfYTEaPY6omlU-11" edge="1">
          <mxGeometry relative="1" as="geometry" />
        </mxCell>
        <mxCell id="CcBjBYZrfYTEaPY6omlU-9" value="tampilkanMahasiswaTertinggi&lt;br&gt;(namaMahasiswa, nilaiTugas)" style="shape=process;whiteSpace=wrap;html=1;backgroundOutline=1;" parent="WIyWlLk6GJQsqaUBKTNV-1" vertex="1">
          <mxGeometry x="40" y="760" width="180" height="70" as="geometry" />
        </mxCell>
        <mxCell id="CcBjBYZrfYTEaPY6omlU-11" value="End" style="ellipse;whiteSpace=wrap;html=1;" parent="WIyWlLk6GJQsqaUBKTNV-1" vertex="1">
          <mxGeometry x="50" y="870" width="160" height="70" as="geometry" />
        </mxCell>
        <mxCell id="CcBjBYZrfYTEaPY6omlU-13" value="Flowchart : main (String[ ] args" style="text;html=1;strokeColor=none;fillColor=none;align=center;verticalAlign=middle;whiteSpace=wrap;rounded=0;" parent="WIyWlLk6GJQsqaUBKTNV-1" vertex="1">
          <mxGeometry x="40" y="280" width="180" height="30" as="geometry" />
        </mxCell>
        <mxCell id="CcBjBYZrfYTEaPY6omlU-16" value="" style="edgeStyle=orthogonalEdgeStyle;rounded=0;orthogonalLoop=1;jettySize=auto;html=1;" parent="WIyWlLk6GJQsqaUBKTNV-1" source="CcBjBYZrfYTEaPY6omlU-14" target="CcBjBYZrfYTEaPY6omlU-15" edge="1">
          <mxGeometry relative="1" as="geometry" />
        </mxCell>
        <mxCell id="CcBjBYZrfYTEaPY6omlU-14" value="static inputDataNilaiMahasiswa&lt;br style=&quot;border-color: var(--border-color);&quot;&gt;(String[ ] namaMahasiswa, &lt;br&gt;int[ ][ ] nilaiTugas)" style="ellipse;whiteSpace=wrap;html=1;" parent="WIyWlLk6GJQsqaUBKTNV-1" vertex="1">
          <mxGeometry x="420" y="310" width="210" height="90" as="geometry" />
        </mxCell>
        <mxCell id="CcBjBYZrfYTEaPY6omlU-18" value="" style="edgeStyle=orthogonalEdgeStyle;rounded=0;orthogonalLoop=1;jettySize=auto;html=1;" parent="WIyWlLk6GJQsqaUBKTNV-1" source="CcBjBYZrfYTEaPY6omlU-15" target="CcBjBYZrfYTEaPY6omlU-17" edge="1">
          <mxGeometry relative="1" as="geometry" />
        </mxCell>
        <mxCell id="CcBjBYZrfYTEaPY6omlU-15" value="i = 0" style="rounded=0;whiteSpace=wrap;html=1;" parent="WIyWlLk6GJQsqaUBKTNV-1" vertex="1">
          <mxGeometry x="431.25" y="450" width="187.5" height="70" as="geometry" />
        </mxCell>
        <mxCell id="CcBjBYZrfYTEaPY6omlU-20" value="" style="edgeStyle=orthogonalEdgeStyle;rounded=0;orthogonalLoop=1;jettySize=auto;html=1;" parent="WIyWlLk6GJQsqaUBKTNV-1" source="CcBjBYZrfYTEaPY6omlU-17" target="CcBjBYZrfYTEaPY6omlU-19" edge="1">
          <mxGeometry relative="1" as="geometry" />
        </mxCell>
        <mxCell id="CcBjBYZrfYTEaPY6omlU-28" value="True" style="edgeLabel;html=1;align=center;verticalAlign=middle;resizable=0;points=[];" parent="CcBjBYZrfYTEaPY6omlU-20" vertex="1" connectable="0">
          <mxGeometry x="-0.1704" y="3" relative="1" as="geometry">
            <mxPoint as="offset" />
          </mxGeometry>
        </mxCell>
        <mxCell id="CcBjBYZrfYTEaPY6omlU-44" style="edgeStyle=orthogonalEdgeStyle;rounded=0;orthogonalLoop=1;jettySize=auto;html=1;exitX=0;exitY=0.5;exitDx=0;exitDy=0;entryX=0;entryY=0.5;entryDx=0;entryDy=0;" parent="WIyWlLk6GJQsqaUBKTNV-1" source="CcBjBYZrfYTEaPY6omlU-17" target="CcBjBYZrfYTEaPY6omlU-29" edge="1">
          <mxGeometry relative="1" as="geometry">
            <Array as="points">
              <mxPoint x="350" y="617" />
              <mxPoint x="350" y="1385" />
            </Array>
          </mxGeometry>
        </mxCell>
        <mxCell id="CcBjBYZrfYTEaPY6omlU-17" value="i &amp;lt; 5" style="rhombus;whiteSpace=wrap;html=1;rounded=0;" parent="WIyWlLk6GJQsqaUBKTNV-1" vertex="1">
          <mxGeometry x="432.5" y="570" width="185" height="95" as="geometry" />
        </mxCell>
        <mxCell id="CcBjBYZrfYTEaPY6omlU-24" value="" style="edgeStyle=orthogonalEdgeStyle;rounded=0;orthogonalLoop=1;jettySize=auto;html=1;" parent="WIyWlLk6GJQsqaUBKTNV-1" source="CcBjBYZrfYTEaPY6omlU-19" target="CcBjBYZrfYTEaPY6omlU-22" edge="1">
          <mxGeometry relative="1" as="geometry" />
        </mxCell>
        <mxCell id="CcBjBYZrfYTEaPY6omlU-19" value="print &quot;Masukkan nama mahasiswa &lt;br&gt;ke- &quot; + (i + 1) + &quot; : &quot;&amp;nbsp;" style="shape=parallelogram;perimeter=parallelogramPerimeter;whiteSpace=wrap;html=1;fixedSize=1;" parent="WIyWlLk6GJQsqaUBKTNV-1" vertex="1">
          <mxGeometry x="437.19" y="710" width="175.62" height="80" as="geometry" />
        </mxCell>
        <mxCell id="CcBjBYZrfYTEaPY6omlU-31" style="edgeStyle=orthogonalEdgeStyle;rounded=0;orthogonalLoop=1;jettySize=auto;html=1;exitX=0;exitY=0.5;exitDx=0;exitDy=0;entryX=1;entryY=0.5;entryDx=0;entryDy=0;" parent="WIyWlLk6GJQsqaUBKTNV-1" source="CcBjBYZrfYTEaPY6omlU-21" target="CcBjBYZrfYTEaPY6omlU-17" edge="1">
          <mxGeometry relative="1" as="geometry" />
        </mxCell>
        <mxCell id="CcBjBYZrfYTEaPY6omlU-21" value="i ++" style="rounded=0;whiteSpace=wrap;html=1;" parent="WIyWlLk6GJQsqaUBKTNV-1" vertex="1">
          <mxGeometry x="680" y="582.5" width="187.5" height="70" as="geometry" />
        </mxCell>
        <mxCell id="CcBjBYZrfYTEaPY6omlU-35" value="" style="edgeStyle=orthogonalEdgeStyle;rounded=0;orthogonalLoop=1;jettySize=auto;html=1;" parent="WIyWlLk6GJQsqaUBKTNV-1" source="CcBjBYZrfYTEaPY6omlU-22" target="CcBjBYZrfYTEaPY6omlU-34" edge="1">
          <mxGeometry relative="1" as="geometry" />
        </mxCell>
        <mxCell id="CcBjBYZrfYTEaPY6omlU-22" value="j = 0" style="rounded=0;whiteSpace=wrap;html=1;" parent="WIyWlLk6GJQsqaUBKTNV-1" vertex="1">
          <mxGeometry x="430" y="850" width="187.5" height="70" as="geometry" />
        </mxCell>
        <mxCell id="CcBjBYZrfYTEaPY6omlU-27" value="" style="edgeStyle=orthogonalEdgeStyle;rounded=0;orthogonalLoop=1;jettySize=auto;html=1;" parent="WIyWlLk6GJQsqaUBKTNV-1" source="CcBjBYZrfYTEaPY6omlU-23" target="CcBjBYZrfYTEaPY6omlU-26" edge="1">
          <mxGeometry relative="1" as="geometry" />
        </mxCell>
        <mxCell id="CcBjBYZrfYTEaPY6omlU-23" value="printf &quot;Masukkan nilai untuk minggu ke-%d : &quot;, j + 1" style="shape=parallelogram;perimeter=parallelogramPerimeter;whiteSpace=wrap;html=1;fixedSize=1;" parent="WIyWlLk6GJQsqaUBKTNV-1" vertex="1">
          <mxGeometry x="435.94" y="1100" width="175.62" height="80" as="geometry" />
        </mxCell>
        <mxCell id="CcBjBYZrfYTEaPY6omlU-40" style="edgeStyle=orthogonalEdgeStyle;rounded=0;orthogonalLoop=1;jettySize=auto;html=1;exitX=0;exitY=0.5;exitDx=0;exitDy=0;entryX=0;entryY=0.5;entryDx=0;entryDy=0;" parent="WIyWlLk6GJQsqaUBKTNV-1" source="CcBjBYZrfYTEaPY6omlU-26" target="CcBjBYZrfYTEaPY6omlU-34" edge="1">
          <mxGeometry relative="1" as="geometry">
            <Array as="points">
              <mxPoint x="390" y="1265" />
              <mxPoint x="390" y="1007" />
            </Array>
          </mxGeometry>
        </mxCell>
        <mxCell id="CcBjBYZrfYTEaPY6omlU-26" value="j ++" style="rounded=0;whiteSpace=wrap;html=1;" parent="WIyWlLk6GJQsqaUBKTNV-1" vertex="1">
          <mxGeometry x="430" y="1230" width="187.5" height="70" as="geometry" />
        </mxCell>
        <mxCell id="CcBjBYZrfYTEaPY6omlU-29" value="return" style="ellipse;whiteSpace=wrap;html=1;" parent="WIyWlLk6GJQsqaUBKTNV-1" vertex="1">
          <mxGeometry x="418.75" y="1340" width="210" height="90" as="geometry" />
        </mxCell>
        <mxCell id="CcBjBYZrfYTEaPY6omlU-36" value="" style="edgeStyle=orthogonalEdgeStyle;rounded=0;orthogonalLoop=1;jettySize=auto;html=1;" parent="WIyWlLk6GJQsqaUBKTNV-1" source="CcBjBYZrfYTEaPY6omlU-34" target="CcBjBYZrfYTEaPY6omlU-23" edge="1">
          <mxGeometry relative="1" as="geometry" />
        </mxCell>
        <mxCell id="CcBjBYZrfYTEaPY6omlU-42" style="edgeStyle=orthogonalEdgeStyle;rounded=0;orthogonalLoop=1;jettySize=auto;html=1;exitX=1;exitY=0.5;exitDx=0;exitDy=0;" parent="WIyWlLk6GJQsqaUBKTNV-1" source="CcBjBYZrfYTEaPY6omlU-34" target="CcBjBYZrfYTEaPY6omlU-21" edge="1">
          <mxGeometry relative="1" as="geometry" />
        </mxCell>
        <mxCell id="CcBjBYZrfYTEaPY6omlU-34" value="j &amp;lt; 7" style="rhombus;whiteSpace=wrap;html=1;rounded=0;" parent="WIyWlLk6GJQsqaUBKTNV-1" vertex="1">
          <mxGeometry x="431.75" y="960" width="185" height="95" as="geometry" />
        </mxCell>
        <mxCell id="CcBjBYZrfYTEaPY6omlU-43" value="Flowchart : inputDataNilaiMahasiswa&lt;br style=&quot;border-color: var(--border-color);&quot;&gt;(String[ ] namaMahasiswa,&lt;br style=&quot;border-color: var(--border-color);&quot;&gt;int[ ][ ] nilaiTugas)" style="text;html=1;strokeColor=none;fillColor=none;align=center;verticalAlign=middle;whiteSpace=wrap;rounded=0;" parent="WIyWlLk6GJQsqaUBKTNV-1" vertex="1">
          <mxGeometry x="414" y="260" width="230" height="30" as="geometry" />
        </mxCell>
        <mxCell id="CcBjBYZrfYTEaPY6omlU-50" value="" style="edgeStyle=orthogonalEdgeStyle;rounded=0;orthogonalLoop=1;jettySize=auto;html=1;" parent="WIyWlLk6GJQsqaUBKTNV-1" source="CcBjBYZrfYTEaPY6omlU-45" target="CcBjBYZrfYTEaPY6omlU-47" edge="1">
          <mxGeometry relative="1" as="geometry" />
        </mxCell>
        <mxCell id="CcBjBYZrfYTEaPY6omlU-45" value="static tampilkanNilaiMahasiswa&lt;br style=&quot;border-color: var(--border-color);&quot;&gt;(String[ ] namaMahasiswa,&lt;br&gt;int[ ][ ] nilaiTugas)" style="ellipse;whiteSpace=wrap;html=1;" parent="WIyWlLk6GJQsqaUBKTNV-1" vertex="1">
          <mxGeometry x="1200" y="310" width="210" height="90" as="geometry" />
        </mxCell>
        <mxCell id="CcBjBYZrfYTEaPY6omlU-46" value="Flowchart :&amp;nbsp; tampilkanNilaiMahasiswa&lt;br style=&quot;border-color: var(--border-color);&quot;&gt;(String[ ] namaMahasiswa,&lt;br style=&quot;border-color: var(--border-color);&quot;&gt;int[ ][ ] nilaiTugas)" style="text;html=1;strokeColor=none;fillColor=none;align=center;verticalAlign=middle;whiteSpace=wrap;rounded=0;" parent="WIyWlLk6GJQsqaUBKTNV-1" vertex="1">
          <mxGeometry x="1160" y="260" width="300" height="30" as="geometry" />
        </mxCell>
        <mxCell id="CcBjBYZrfYTEaPY6omlU-51" value="" style="edgeStyle=orthogonalEdgeStyle;rounded=0;orthogonalLoop=1;jettySize=auto;html=1;" parent="WIyWlLk6GJQsqaUBKTNV-1" source="CcBjBYZrfYTEaPY6omlU-47" target="CcBjBYZrfYTEaPY6omlU-48" edge="1">
          <mxGeometry relative="1" as="geometry" />
        </mxCell>
        <mxCell id="CcBjBYZrfYTEaPY6omlU-47" value="println &quot;\nNilai Mahasiswa : &quot;" style="shape=parallelogram;perimeter=parallelogramPerimeter;whiteSpace=wrap;html=1;fixedSize=1;" parent="WIyWlLk6GJQsqaUBKTNV-1" vertex="1">
          <mxGeometry x="1217.19" y="440" width="175.62" height="80" as="geometry" />
        </mxCell>
        <mxCell id="CcBjBYZrfYTEaPY6omlU-52" value="" style="edgeStyle=orthogonalEdgeStyle;rounded=0;orthogonalLoop=1;jettySize=auto;html=1;" parent="WIyWlLk6GJQsqaUBKTNV-1" source="CcBjBYZrfYTEaPY6omlU-48" target="CcBjBYZrfYTEaPY6omlU-49" edge="1">
          <mxGeometry relative="1" as="geometry" />
        </mxCell>
        <mxCell id="CcBjBYZrfYTEaPY6omlU-48" value="println &quot;-----------------&quot;" style="shape=parallelogram;perimeter=parallelogramPerimeter;whiteSpace=wrap;html=1;fixedSize=1;" parent="WIyWlLk6GJQsqaUBKTNV-1" vertex="1">
          <mxGeometry x="1217.19" y="570" width="175.62" height="80" as="geometry" />
        </mxCell>
        <mxCell id="CcBjBYZrfYTEaPY6omlU-62" style="edgeStyle=orthogonalEdgeStyle;rounded=0;orthogonalLoop=1;jettySize=auto;html=1;exitX=0.5;exitY=1;exitDx=0;exitDy=0;entryX=0.5;entryY=0;entryDx=0;entryDy=0;" parent="WIyWlLk6GJQsqaUBKTNV-1" source="CcBjBYZrfYTEaPY6omlU-49" target="CcBjBYZrfYTEaPY6omlU-53" edge="1">
          <mxGeometry relative="1" as="geometry" />
        </mxCell>
        <mxCell id="CcBjBYZrfYTEaPY6omlU-49" value="printf &quot; |&amp;nbsp; %-15 |&quot;, &quot;Nama Mahasiswa&quot;" style="shape=parallelogram;perimeter=parallelogramPerimeter;whiteSpace=wrap;html=1;fixedSize=1;" parent="WIyWlLk6GJQsqaUBKTNV-1" vertex="1">
          <mxGeometry x="1217.19" y="700" width="175.62" height="80" as="geometry" />
        </mxCell>
        <mxCell id="CcBjBYZrfYTEaPY6omlU-63" value="" style="edgeStyle=orthogonalEdgeStyle;rounded=0;orthogonalLoop=1;jettySize=auto;html=1;" parent="WIyWlLk6GJQsqaUBKTNV-1" source="CcBjBYZrfYTEaPY6omlU-53" target="CcBjBYZrfYTEaPY6omlU-54" edge="1">
          <mxGeometry relative="1" as="geometry" />
        </mxCell>
        <mxCell id="CcBjBYZrfYTEaPY6omlU-53" value="i = 0" style="rounded=0;whiteSpace=wrap;html=1;" parent="WIyWlLk6GJQsqaUBKTNV-1" vertex="1">
          <mxGeometry x="1211.25" y="830" width="187.5" height="70" as="geometry" />
        </mxCell>
        <mxCell id="CcBjBYZrfYTEaPY6omlU-64" style="edgeStyle=orthogonalEdgeStyle;rounded=0;orthogonalLoop=1;jettySize=auto;html=1;exitX=0.5;exitY=1;exitDx=0;exitDy=0;entryX=0.5;entryY=0;entryDx=0;entryDy=0;" parent="WIyWlLk6GJQsqaUBKTNV-1" source="CcBjBYZrfYTEaPY6omlU-54" target="CcBjBYZrfYTEaPY6omlU-55" edge="1">
          <mxGeometry relative="1" as="geometry" />
        </mxCell>
        <mxCell id="CcBjBYZrfYTEaPY6omlU-74" style="edgeStyle=orthogonalEdgeStyle;rounded=0;orthogonalLoop=1;jettySize=auto;html=1;exitX=0;exitY=0.5;exitDx=0;exitDy=0;entryX=0;entryY=0.5;entryDx=0;entryDy=0;" parent="WIyWlLk6GJQsqaUBKTNV-1" source="CcBjBYZrfYTEaPY6omlU-54" target="CcBjBYZrfYTEaPY6omlU-73" edge="1">
          <mxGeometry relative="1" as="geometry">
            <Array as="points">
              <mxPoint x="1090" y="998" />
              <mxPoint x="1090" y="1965" />
            </Array>
          </mxGeometry>
        </mxCell>
        <mxCell id="CcBjBYZrfYTEaPY6omlU-54" value="i &amp;lt; 5" style="rhombus;whiteSpace=wrap;html=1;rounded=0;" parent="WIyWlLk6GJQsqaUBKTNV-1" vertex="1">
          <mxGeometry x="1213.75" y="950" width="185" height="95" as="geometry" />
        </mxCell>
        <mxCell id="CcBjBYZrfYTEaPY6omlU-65" style="edgeStyle=orthogonalEdgeStyle;rounded=0;orthogonalLoop=1;jettySize=auto;html=1;exitX=0.5;exitY=1;exitDx=0;exitDy=0;entryX=0.5;entryY=0;entryDx=0;entryDy=0;" parent="WIyWlLk6GJQsqaUBKTNV-1" source="CcBjBYZrfYTEaPY6omlU-55" target="CcBjBYZrfYTEaPY6omlU-61" edge="1">
          <mxGeometry relative="1" as="geometry" />
        </mxCell>
        <mxCell id="CcBjBYZrfYTEaPY6omlU-55" value="printf &quot; |&amp;nbsp; %-15 |&quot;, namaMahasiswa[i]" style="shape=parallelogram;perimeter=parallelogramPerimeter;whiteSpace=wrap;html=1;fixedSize=1;" parent="WIyWlLk6GJQsqaUBKTNV-1" vertex="1">
          <mxGeometry x="1217.19" y="1080" width="175.62" height="80" as="geometry" />
        </mxCell>
        <mxCell id="CcBjBYZrfYTEaPY6omlU-71" style="edgeStyle=orthogonalEdgeStyle;rounded=0;orthogonalLoop=1;jettySize=auto;html=1;" parent="WIyWlLk6GJQsqaUBKTNV-1" source="CcBjBYZrfYTEaPY6omlU-56" edge="1">
          <mxGeometry relative="1" as="geometry">
            <mxPoint x="1400" y="997.5" as="targetPoint" />
          </mxGeometry>
        </mxCell>
        <mxCell id="CcBjBYZrfYTEaPY6omlU-56" value="i ++" style="rounded=0;whiteSpace=wrap;html=1;" parent="WIyWlLk6GJQsqaUBKTNV-1" vertex="1">
          <mxGeometry x="1467" y="962.5" width="187.5" height="70" as="geometry" />
        </mxCell>
        <mxCell id="CcBjBYZrfYTEaPY6omlU-67" value="" style="edgeStyle=orthogonalEdgeStyle;rounded=0;orthogonalLoop=1;jettySize=auto;html=1;" parent="WIyWlLk6GJQsqaUBKTNV-1" source="CcBjBYZrfYTEaPY6omlU-57" target="CcBjBYZrfYTEaPY6omlU-58" edge="1">
          <mxGeometry relative="1" as="geometry" />
        </mxCell>
        <mxCell id="CcBjBYZrfYTEaPY6omlU-57" value="j = 0" style="rounded=0;whiteSpace=wrap;html=1;" parent="WIyWlLk6GJQsqaUBKTNV-1" vertex="1">
          <mxGeometry x="1212.5" y="1360" width="187.5" height="70" as="geometry" />
        </mxCell>
        <mxCell id="CcBjBYZrfYTEaPY6omlU-68" value="" style="edgeStyle=orthogonalEdgeStyle;rounded=0;orthogonalLoop=1;jettySize=auto;html=1;" parent="WIyWlLk6GJQsqaUBKTNV-1" source="CcBjBYZrfYTEaPY6omlU-58" target="CcBjBYZrfYTEaPY6omlU-59" edge="1">
          <mxGeometry relative="1" as="geometry" />
        </mxCell>
        <mxCell id="CcBjBYZrfYTEaPY6omlU-70" style="edgeStyle=orthogonalEdgeStyle;rounded=0;orthogonalLoop=1;jettySize=auto;html=1;exitX=1;exitY=0.5;exitDx=0;exitDy=0;entryX=0.5;entryY=1;entryDx=0;entryDy=0;" parent="WIyWlLk6GJQsqaUBKTNV-1" source="CcBjBYZrfYTEaPY6omlU-58" target="CcBjBYZrfYTEaPY6omlU-56" edge="1">
          <mxGeometry relative="1" as="geometry" />
        </mxCell>
        <mxCell id="CcBjBYZrfYTEaPY6omlU-58" value="j &amp;lt; 7" style="rhombus;whiteSpace=wrap;html=1;rounded=0;" parent="WIyWlLk6GJQsqaUBKTNV-1" vertex="1">
          <mxGeometry x="1212.5" y="1490" width="185" height="95" as="geometry" />
        </mxCell>
        <mxCell id="CcBjBYZrfYTEaPY6omlU-69" value="" style="edgeStyle=orthogonalEdgeStyle;rounded=0;orthogonalLoop=1;jettySize=auto;html=1;" parent="WIyWlLk6GJQsqaUBKTNV-1" source="CcBjBYZrfYTEaPY6omlU-59" target="CcBjBYZrfYTEaPY6omlU-60" edge="1">
          <mxGeometry relative="1" as="geometry" />
        </mxCell>
        <mxCell id="CcBjBYZrfYTEaPY6omlU-59" value="printf &quot; |&amp;nbsp; %-8d |&quot;, &lt;br&gt;nilaiTugas[i]ij]" style="shape=parallelogram;perimeter=parallelogramPerimeter;whiteSpace=wrap;html=1;fixedSize=1;" parent="WIyWlLk6GJQsqaUBKTNV-1" vertex="1">
          <mxGeometry x="1218.44" y="1640" width="175.62" height="80" as="geometry" />
        </mxCell>
        <mxCell id="CcBjBYZrfYTEaPY6omlU-72" style="edgeStyle=orthogonalEdgeStyle;rounded=0;orthogonalLoop=1;jettySize=auto;html=1;exitX=0;exitY=0.5;exitDx=0;exitDy=0;entryX=0;entryY=0.5;entryDx=0;entryDy=0;" parent="WIyWlLk6GJQsqaUBKTNV-1" source="CcBjBYZrfYTEaPY6omlU-60" target="CcBjBYZrfYTEaPY6omlU-58" edge="1">
          <mxGeometry relative="1" as="geometry">
            <Array as="points">
              <mxPoint x="1140" y="1815" />
              <mxPoint x="1140" y="1538" />
            </Array>
          </mxGeometry>
        </mxCell>
        <mxCell id="CcBjBYZrfYTEaPY6omlU-60" value="j ++" style="rounded=0;whiteSpace=wrap;html=1;" parent="WIyWlLk6GJQsqaUBKTNV-1" vertex="1">
          <mxGeometry x="1211.56" y="1780" width="187.5" height="70" as="geometry" />
        </mxCell>
        <mxCell id="CcBjBYZrfYTEaPY6omlU-66" value="" style="edgeStyle=orthogonalEdgeStyle;rounded=0;orthogonalLoop=1;jettySize=auto;html=1;" parent="WIyWlLk6GJQsqaUBKTNV-1" source="CcBjBYZrfYTEaPY6omlU-61" target="CcBjBYZrfYTEaPY6omlU-57" edge="1">
          <mxGeometry relative="1" as="geometry" />
        </mxCell>
        <mxCell id="CcBjBYZrfYTEaPY6omlU-61" value="println &quot;-----------------&quot;" style="shape=parallelogram;perimeter=parallelogramPerimeter;whiteSpace=wrap;html=1;fixedSize=1;" parent="WIyWlLk6GJQsqaUBKTNV-1" vertex="1">
          <mxGeometry x="1218.44" y="1220" width="175.62" height="80" as="geometry" />
        </mxCell>
        <mxCell id="CcBjBYZrfYTEaPY6omlU-73" value="return" style="ellipse;whiteSpace=wrap;html=1;" parent="WIyWlLk6GJQsqaUBKTNV-1" vertex="1">
          <mxGeometry x="1200" y="1920" width="210" height="90" as="geometry" />
        </mxCell>
        <mxCell id="CcBjBYZrfYTEaPY6omlU-75" value="Flowchart :&amp;nbsp; tampilkanNilaiMahasiswa&lt;br style=&quot;border-color: var(--border-color);&quot;&gt;(String[ ] namaMahasiswa,&lt;br style=&quot;border-color: var(--border-color);&quot;&gt;int[ ][ ] nilaiTugas)" style="text;html=1;strokeColor=none;fillColor=none;align=center;verticalAlign=middle;whiteSpace=wrap;rounded=0;" parent="WIyWlLk6GJQsqaUBKTNV-1" vertex="1">
          <mxGeometry x="1970" y="260" width="300" height="30" as="geometry" />
        </mxCell>
        <mxCell id="CcBjBYZrfYTEaPY6omlU-93" value="" style="edgeStyle=orthogonalEdgeStyle;rounded=0;orthogonalLoop=1;jettySize=auto;html=1;" parent="WIyWlLk6GJQsqaUBKTNV-1" source="CcBjBYZrfYTEaPY6omlU-76" target="CcBjBYZrfYTEaPY6omlU-77" edge="1">
          <mxGeometry relative="1" as="geometry" />
        </mxCell>
        <mxCell id="CcBjBYZrfYTEaPY6omlU-76" value="static tampilkanMahasiswaTertinggi&lt;br style=&quot;border-color: var(--border-color);&quot;&gt;(String[ ] namaMahasiswa, &lt;br&gt;int [ ] [ ] nilaiTugas)" style="ellipse;whiteSpace=wrap;html=1;" parent="WIyWlLk6GJQsqaUBKTNV-1" vertex="1">
          <mxGeometry x="2015" y="320" width="210" height="90" as="geometry" />
        </mxCell>
        <mxCell id="CcBjBYZrfYTEaPY6omlU-94" value="" style="edgeStyle=orthogonalEdgeStyle;rounded=0;orthogonalLoop=1;jettySize=auto;html=1;" parent="WIyWlLk6GJQsqaUBKTNV-1" source="CcBjBYZrfYTEaPY6omlU-77" target="CcBjBYZrfYTEaPY6omlU-78" edge="1">
          <mxGeometry relative="1" as="geometry" />
        </mxCell>
        <mxCell id="CcBjBYZrfYTEaPY6omlU-77" value="int mahasiswaTertinggi = 0&lt;br&gt;int mingguTertinggi = 0&lt;br&gt;integerNilaiTertinggi = Integer.MIN._VALUE&lt;br&gt;int nilaiTertinggiMingguIni =&amp;nbsp; Integer.MIN.VALUE" style="shape=hexagon;perimeter=hexagonPerimeter2;whiteSpace=wrap;html=1;fixedSize=1;" parent="WIyWlLk6GJQsqaUBKTNV-1" vertex="1">
          <mxGeometry x="2025" y="470" width="190" height="90" as="geometry" />
        </mxCell>
        <mxCell id="CcBjBYZrfYTEaPY6omlU-95" value="" style="edgeStyle=orthogonalEdgeStyle;rounded=0;orthogonalLoop=1;jettySize=auto;html=1;" parent="WIyWlLk6GJQsqaUBKTNV-1" source="CcBjBYZrfYTEaPY6omlU-78" target="CcBjBYZrfYTEaPY6omlU-79" edge="1">
          <mxGeometry relative="1" as="geometry" />
        </mxCell>
        <mxCell id="CcBjBYZrfYTEaPY6omlU-78" value="i = 0" style="rounded=0;whiteSpace=wrap;html=1;" parent="WIyWlLk6GJQsqaUBKTNV-1" vertex="1">
          <mxGeometry x="2027.5" y="610" width="187.5" height="70" as="geometry" />
        </mxCell>
        <mxCell id="CcBjBYZrfYTEaPY6omlU-96" value="" style="edgeStyle=orthogonalEdgeStyle;rounded=0;orthogonalLoop=1;jettySize=auto;html=1;" parent="WIyWlLk6GJQsqaUBKTNV-1" source="CcBjBYZrfYTEaPY6omlU-79" target="CcBjBYZrfYTEaPY6omlU-81" edge="1">
          <mxGeometry relative="1" as="geometry" />
        </mxCell>
        <mxCell id="CcBjBYZrfYTEaPY6omlU-111" style="edgeStyle=orthogonalEdgeStyle;rounded=0;orthogonalLoop=1;jettySize=auto;html=1;exitX=0;exitY=0.5;exitDx=0;exitDy=0;entryX=0;entryY=0.5;entryDx=0;entryDy=0;" parent="WIyWlLk6GJQsqaUBKTNV-1" source="CcBjBYZrfYTEaPY6omlU-79" target="CcBjBYZrfYTEaPY6omlU-110" edge="1">
          <mxGeometry relative="1" as="geometry">
            <Array as="points">
              <mxPoint x="1840" y="778" />
              <mxPoint x="1840" y="2175" />
            </Array>
          </mxGeometry>
        </mxCell>
        <mxCell id="CcBjBYZrfYTEaPY6omlU-79" value="i &amp;lt; 7" style="rhombus;whiteSpace=wrap;html=1;rounded=0;" parent="WIyWlLk6GJQsqaUBKTNV-1" vertex="1">
          <mxGeometry x="2029.75" y="730" width="185" height="95" as="geometry" />
        </mxCell>
        <mxCell id="CcBjBYZrfYTEaPY6omlU-97" value="" style="edgeStyle=orthogonalEdgeStyle;rounded=0;orthogonalLoop=1;jettySize=auto;html=1;" parent="WIyWlLk6GJQsqaUBKTNV-1" source="CcBjBYZrfYTEaPY6omlU-81" target="CcBjBYZrfYTEaPY6omlU-83" edge="1">
          <mxGeometry relative="1" as="geometry" />
        </mxCell>
        <mxCell id="CcBjBYZrfYTEaPY6omlU-81" value="j = 0" style="rounded=0;whiteSpace=wrap;html=1;" parent="WIyWlLk6GJQsqaUBKTNV-1" vertex="1">
          <mxGeometry x="2029.5" y="880" width="187.5" height="70" as="geometry" />
        </mxCell>
        <mxCell id="CcBjBYZrfYTEaPY6omlU-107" value="" style="edgeStyle=orthogonalEdgeStyle;rounded=0;orthogonalLoop=1;jettySize=auto;html=1;" parent="WIyWlLk6GJQsqaUBKTNV-1" source="CcBjBYZrfYTEaPY6omlU-82" target="CcBjBYZrfYTEaPY6omlU-79" edge="1">
          <mxGeometry relative="1" as="geometry" />
        </mxCell>
        <mxCell id="CcBjBYZrfYTEaPY6omlU-82" value="i ++" style="rounded=0;whiteSpace=wrap;html=1;" parent="WIyWlLk6GJQsqaUBKTNV-1" vertex="1">
          <mxGeometry x="2330" y="742.5" width="187.5" height="70" as="geometry" />
        </mxCell>
        <mxCell id="CcBjBYZrfYTEaPY6omlU-98" value="" style="edgeStyle=orthogonalEdgeStyle;rounded=0;orthogonalLoop=1;jettySize=auto;html=1;" parent="WIyWlLk6GJQsqaUBKTNV-1" source="CcBjBYZrfYTEaPY6omlU-83" target="CcBjBYZrfYTEaPY6omlU-85" edge="1">
          <mxGeometry relative="1" as="geometry" />
        </mxCell>
        <mxCell id="CcBjBYZrfYTEaPY6omlU-83" value="i &amp;lt; 5" style="rhombus;whiteSpace=wrap;html=1;rounded=0;" parent="WIyWlLk6GJQsqaUBKTNV-1" vertex="1">
          <mxGeometry x="2031.5" y="1000" width="185" height="95" as="geometry" />
        </mxCell>
        <mxCell id="CcBjBYZrfYTEaPY6omlU-99" value="" style="edgeStyle=orthogonalEdgeStyle;rounded=0;orthogonalLoop=1;jettySize=auto;html=1;" parent="WIyWlLk6GJQsqaUBKTNV-1" source="CcBjBYZrfYTEaPY6omlU-85" target="CcBjBYZrfYTEaPY6omlU-86" edge="1">
          <mxGeometry relative="1" as="geometry" />
        </mxCell>
        <mxCell id="CcBjBYZrfYTEaPY6omlU-85" value="nilaiTugas[j][i] &amp;gt; nilaiTertinggiMingguIni" style="rhombus;whiteSpace=wrap;html=1;rounded=0;" parent="WIyWlLk6GJQsqaUBKTNV-1" vertex="1">
          <mxGeometry x="2032.5" y="1135" width="185" height="95" as="geometry" />
        </mxCell>
        <mxCell id="CcBjBYZrfYTEaPY6omlU-100" value="" style="edgeStyle=orthogonalEdgeStyle;rounded=0;orthogonalLoop=1;jettySize=auto;html=1;" parent="WIyWlLk6GJQsqaUBKTNV-1" source="CcBjBYZrfYTEaPY6omlU-86" target="CcBjBYZrfYTEaPY6omlU-87" edge="1">
          <mxGeometry relative="1" as="geometry" />
        </mxCell>
        <mxCell id="CcBjBYZrfYTEaPY6omlU-86" value="nilaiTertinggiMingguIni = nilaiTugas[j][i]" style="rounded=0;whiteSpace=wrap;html=1;" parent="WIyWlLk6GJQsqaUBKTNV-1" vertex="1">
          <mxGeometry x="2031.75" y="1260" width="187.5" height="70" as="geometry" />
        </mxCell>
        <mxCell id="CcBjBYZrfYTEaPY6omlU-101" value="" style="edgeStyle=orthogonalEdgeStyle;rounded=0;orthogonalLoop=1;jettySize=auto;html=1;" parent="WIyWlLk6GJQsqaUBKTNV-1" source="CcBjBYZrfYTEaPY6omlU-87" target="CcBjBYZrfYTEaPY6omlU-88" edge="1">
          <mxGeometry relative="1" as="geometry" />
        </mxCell>
        <mxCell id="CcBjBYZrfYTEaPY6omlU-87" value="mahasiswaTertinggi = j" style="rounded=0;whiteSpace=wrap;html=1;" parent="WIyWlLk6GJQsqaUBKTNV-1" vertex="1">
          <mxGeometry x="2031.75" y="1370" width="187.5" height="70" as="geometry" />
        </mxCell>
        <mxCell id="CcBjBYZrfYTEaPY6omlU-102" value="" style="edgeStyle=orthogonalEdgeStyle;rounded=0;orthogonalLoop=1;jettySize=auto;html=1;" parent="WIyWlLk6GJQsqaUBKTNV-1" source="CcBjBYZrfYTEaPY6omlU-88" target="CcBjBYZrfYTEaPY6omlU-89" edge="1">
          <mxGeometry relative="1" as="geometry" />
        </mxCell>
        <mxCell id="CcBjBYZrfYTEaPY6omlU-88" value="mingguTertinggi = i + 1" style="rounded=0;whiteSpace=wrap;html=1;" parent="WIyWlLk6GJQsqaUBKTNV-1" vertex="1">
          <mxGeometry x="2032.25" y="1480" width="187.5" height="70" as="geometry" />
        </mxCell>
        <mxCell id="CcBjBYZrfYTEaPY6omlU-103" style="edgeStyle=orthogonalEdgeStyle;rounded=0;orthogonalLoop=1;jettySize=auto;html=1;exitX=0.5;exitY=1;exitDx=0;exitDy=0;entryX=0.5;entryY=0;entryDx=0;entryDy=0;" parent="WIyWlLk6GJQsqaUBKTNV-1" edge="1">
          <mxGeometry relative="1" as="geometry">
            <mxPoint x="2123" y="1692" as="sourcePoint" />
            <mxPoint x="2127" y="1720" as="targetPoint" />
          </mxGeometry>
        </mxCell>
        <mxCell id="CcBjBYZrfYTEaPY6omlU-106" style="edgeStyle=orthogonalEdgeStyle;rounded=0;orthogonalLoop=1;jettySize=auto;html=1;exitX=1;exitY=0.5;exitDx=0;exitDy=0;entryX=0.5;entryY=1;entryDx=0;entryDy=0;" parent="WIyWlLk6GJQsqaUBKTNV-1" source="CcBjBYZrfYTEaPY6omlU-89" target="CcBjBYZrfYTEaPY6omlU-82" edge="1">
          <mxGeometry relative="1" as="geometry" />
        </mxCell>
        <mxCell id="CcBjBYZrfYTEaPY6omlU-89" value="nilaiTertinggiMingguIni &amp;gt; nilaiTertinggi" style="rhombus;whiteSpace=wrap;html=1;rounded=0;" parent="WIyWlLk6GJQsqaUBKTNV-1" vertex="1">
          <mxGeometry x="2033.5" y="1597" width="185" height="95" as="geometry" />
        </mxCell>
        <mxCell id="CcBjBYZrfYTEaPY6omlU-104" value="" style="edgeStyle=orthogonalEdgeStyle;rounded=0;orthogonalLoop=1;jettySize=auto;html=1;" parent="WIyWlLk6GJQsqaUBKTNV-1" source="CcBjBYZrfYTEaPY6omlU-90" target="CcBjBYZrfYTEaPY6omlU-92" edge="1">
          <mxGeometry relative="1" as="geometry" />
        </mxCell>
        <mxCell id="CcBjBYZrfYTEaPY6omlU-90" value="nilaiTertinggi = nilaiTertinggiMingguIni" style="rounded=0;whiteSpace=wrap;html=1;" parent="WIyWlLk6GJQsqaUBKTNV-1" vertex="1">
          <mxGeometry x="2036.25" y="1720" width="187.5" height="70" as="geometry" />
        </mxCell>
        <mxCell id="CcBjBYZrfYTEaPY6omlU-108" style="edgeStyle=orthogonalEdgeStyle;rounded=0;orthogonalLoop=1;jettySize=auto;html=1;exitX=0;exitY=0.5;exitDx=0;exitDy=0;entryX=0;entryY=0.5;entryDx=0;entryDy=0;" parent="WIyWlLk6GJQsqaUBKTNV-1" source="CcBjBYZrfYTEaPY6omlU-91" target="CcBjBYZrfYTEaPY6omlU-89" edge="1">
          <mxGeometry relative="1" as="geometry">
            <Array as="points">
              <mxPoint x="1920" y="2045" />
              <mxPoint x="1920" y="1645" />
            </Array>
          </mxGeometry>
        </mxCell>
        <mxCell id="CcBjBYZrfYTEaPY6omlU-91" value="j ++" style="rounded=0;whiteSpace=wrap;html=1;" parent="WIyWlLk6GJQsqaUBKTNV-1" vertex="1">
          <mxGeometry x="2035.5" y="2010" width="187.5" height="70" as="geometry" />
        </mxCell>
        <mxCell id="CcBjBYZrfYTEaPY6omlU-105" value="" style="edgeStyle=orthogonalEdgeStyle;rounded=0;orthogonalLoop=1;jettySize=auto;html=1;" parent="WIyWlLk6GJQsqaUBKTNV-1" source="CcBjBYZrfYTEaPY6omlU-92" target="CcBjBYZrfYTEaPY6omlU-91" edge="1">
          <mxGeometry relative="1" as="geometry" />
        </mxCell>
        <mxCell id="CcBjBYZrfYTEaPY6omlU-92" value="println &quot;\nMahasiswa dengan nilai tertinggi adalah&quot; &lt;br&gt;+ namaMahasiswa[mahasiswaTertinggi]&lt;br&gt;+ &quot;pada minggu ke-&quot; + mingguTertinggi + &quot;dengan nilai&quot;&lt;br&gt;+ nilaiTertinggi&amp;nbsp;" style="shape=parallelogram;perimeter=parallelogramPerimeter;whiteSpace=wrap;html=1;fixedSize=1;" parent="WIyWlLk6GJQsqaUBKTNV-1" vertex="1">
          <mxGeometry x="1977" y="1841" width="305.31" height="130" as="geometry" />
        </mxCell>
        <mxCell id="CcBjBYZrfYTEaPY6omlU-110" value="return" style="ellipse;whiteSpace=wrap;html=1;" parent="WIyWlLk6GJQsqaUBKTNV-1" vertex="1">
          <mxGeometry x="2027.5" y="2130" width="210" height="90" as="geometry" />
        </mxCell>
      </root>
    </mxGraphModel>
  </diagram>
</mxfile>
